# AST/ASF file generated using VICON BodyLanguage
# -----------------------------------------------
:version 1.10
:name VICON
:units
  mass 1.0
  length 0.45
  angle deg
:documentation
   .ast/.asf automatically generated from VICON data using
   VICON BodyBuilder and BodyLanguage model FoxedUp or BRILLIANT.MOD
:root
   order TX TY TZ RX RY RZ
   axis XYZ
   position 0 0 0  
   orientation 0 0 0 
:bonedata
  begin
     id 1 
     name lhipjoint
     direction 0.671379 -0.66392 0.329334 
     length 2.38647 
     axis 0 0 0  XYZ
  end
  begin
     id 2 
     name lfemur
     direction 0.34202 -0.939693 0  
     length 6.48179  
     axis 0 0 20  XYZ
    dof rx ry rz
    limits (-160.0 20.0)
           (-70.0 70.0)
           (-60.0 70.0)
  end
  begin
     id 3 
     name ltibia
     direction 0.34202 -0.939693 0   
     length 6.86524   
     axis 0 0 20   XYZ
    dof rx
    limits (-10.0 170.0)
  end
  begin
     id 4 
     name lfoot
     direction 0.204886 -0.562919 0.800715   
     length 1.73031   
     axis -90 7.62852e-016 20   XYZ
    dof rx rz
    limits (-45.0 90.0)
           (-70.0 20.0)
  end
  begin
     id 5 
     name ltoes
     direction 1.53548e-011 -4.21841e-011 1   
     length 0.828161   
     axis -90 7.62852e-016 20   XYZ
    dof rx
    limits (-90.0 20.0)
  end
  begin
     id 6 
     name rhipjoint
     direction -0.662732 -0.670855 0.332775   
     length 2.3618  
     axis 0 0 0  XYZ 
  end
  begin
     id 7 
     name rfemur
     direction -0.34202 -0.939693 0   
     length 6.3025   
     axis 0 0 -20   XYZ
    dof rx ry rz
    limits (-160.0 20.0)
           (-70.0 70.0)
           (-70.0 60.0)
  end
  begin
     id 8 
     name rtibia
     direction -0.34202 -0.939693 0   
     length 6.8732   
     axis 0 0 -20   XYZ
    dof rx
    limits (-10.0 170.0)
 end
 begin
     id 9 
     name rfoot
     direction -0.173856 -0.477665 0.861168   
     length 1.54784  
     axis -90 -7.62852e-016 -20   XYZ
    dof rx rz
    limits (-45.0 90.0)
           (-20.0 70.0)
  end
  begin
     id 10 
     name rtoes
     direction -1.53562e-011 -4.21802e-011 1   
     length 0.759618   
     axis -90 -7.62852e-016 -20   XYZ
    dof rx
    limits (-90.0 20.0)
  end
  begin
     id 11 
     name lowerback
     direction -0.0278357 0.999497 -0.0151789   
     length 1.97203   
     axis 0 0 0   XYZ
    dof rx ry rz
    limits (-20.0 45.0)
           (-30.0 30.0)
           (-30.0 30.0)
  end
  begin
     id 12 
     name upperback
     direction -0.00360622 0.997542 0.0699804   
     length 1.94709   
     axis 0 0 0   XYZ
    dof rx ry rz
    limits (-20.0 45.0)
           (-30.0 30.0)
           (-30.0 30.0)
  end
  begin
     id 13 
     name thorax
     direction 0.00907706 0.997048 0.0762461   
     length 1.95722   
     axis 0 0 0   XYZ
    dof rx ry rz
    limits (-20.0 45.0)
           (-30.0 30.0)
           (-30.0 30.0)
  end
  begin
     id 14 
     name lowerneck
     direction -0.0481835 0.99872 -0.0153927   
     length 1.63078   
     axis 0 0 0   XYZ
    dof rx ry rz
    limits (-20.0 45.0)
           (-30.0 30.0)
           (-30.0 30.0)
  end
  begin
     id 15 
     name upperneck
     direction 0.0859716 0.979226 -0.183644   
     length 1.62591   
     axis 0 0 0   XYZ
    dof rx ry rz
    limits (-20.0 45.0)
           (-30.0 30.0)
           (-30.0 30.0)
  end
  begin
     id 16
     name head
     direction 0.0324821 0.997629 -0.0606773  
     length 1.64811  
     axis 0 0 0   XYZ
    dof rx ry rz
    limits (-20.0 45.0)
           (-30.0 30.0)
           (-30.0 30.0)
  end
  begin
     id 17 
     name lclavicle
     direction 0.939609 0.311019 0.142835  
     length 3.70647  
     axis 0 0 0   XYZ
    dof ry rz
    limits (-20.0 10.0)
           (0.0 20.0)
  end
  begin
     id 18 
     name lhumerus
     direction 1 -4.48963e-011 -1.59838e-027   
     length 4.59207   
     axis 180 -30 -90   XYZ
    dof rx ry rz
    limits (-60.0 90.0)
           (-90.0 90.0)
           (-90.0 90.0)
  end
  begin
     id 19
     name lradius
     direction 1 -4.48957e-011 -1.3483e-026   
     length 2.98109   
     axis 180 -30 -90   XYZ
    dof rx
    limits (-10.0 170.0)
  end
  begin
     id 20
     name lwrist
     direction 1 -4.48954e-011 -3.11579e-026   
     length 1.49055   
     axis 2.00652e-014 90 90   XYZ
    dof ry
    limits (-180.0 0.0)
 end
  begin
     id 21 
     name lhand
     direction 1 -4.4911e-011 -6.23158e-026   
     length 0.480203   
     axis 3.97628e-014 90 90   XYZ
    dof rx rz
    limits (-90.0 90.0)
           (-45.0 45.0)
  end
  begin
     id 22 
     name lfingers
     direction 1 -4.48893e-011 -1.24632e-025   
     length 0.387152   
     axis 7.95256e-014 90 90   XYZ
    dof rx
    limits (0.0 90.0)
  end
  begin
     id 23
     name lthumb
     direction 0.707107 -6.35013e-011 0.707107   
     length 0.555875   
     axis -90 45 2.85299e-015   XYZ
    dof rx rz
    limits (-45.0 45.0)
           (-45.0 45.0)
  end
  begin
     id 24 
     name rclavicle
     direction -0.950396 0.30392 0.0661859   
     length 3.70894  
     axis 0 0 0   XYZ 
    dof ry rz
    limits (-10.0 20.0)
           (-20.0 0.0)
  end
  begin
     id 25 
     name rhumerus
     direction -1 -4.48957e-011 -2.96677e-027  
     length 4.76508   
     axis 180 30 90   XYZ
    dof rx ry rz
    limits (-90.0 60.0)
           (-90.0 90.0)
           (-90.0 90.0)
  end
  begin
     id 26 
     name rradius
     direction -1 -4.48974e-011 -1.44501e-026   
     length 2.78902   
     axis 180 30 90   XYZ
    dof rx
    limits (-10.0 170.0)
  end
  begin
     id 27 
     name rwrist
     direction -1 -4.48978e-011 -3.11579e-026   
     length 1.39451   
     axis 2.00652e-014 -90 -90   XYZ
    dof ry
    limits (-180.0 0.0)
  end
  begin
     id 28
     name rhand
     direction -1 -4.48956e-011 -6.23158e-026   
     length 0.721303   
     axis 3.97628e-014 -90 -90   XYZ
    dof rx rz
    limits (-90.0 90.0)
           (-45.0 45.0)
  end
  begin
     id 29
     name rfingers
     direction -1 -4.4899e-011 -1.24632e-025   
     length 0.581533   
     axis 7.95256e-014 -90 -90   XYZ
    dof rx
    limits (0.0 90.0)
  end
  begin
     id 30
     name rthumb
     direction -0.707107 -6.34911e-011 0.707107   
     length 0.834968   
     axis -90 -45 -2.85299e-015   XYZ
    dof rx rz
    limits (-45.0 45.0)
           (-45.0 45.0)
  end
:hierarchy
  begin
    root lhipjoint rhipjoint lowerback
    lhipjoint lfemur
    lfemur ltibia
    ltibia lfoot
    lfoot ltoes
    rhipjoint rfemur
    rfemur rtibia
    rtibia rfoot
    rfoot rtoes
    lowerback upperback
    upperback thorax
    thorax lowerneck lclavicle rclavicle
    lowerneck upperneck
    upperneck head
    lclavicle lhumerus
    lhumerus lradius
    lradius lwrist
    lwrist lhand lthumb
    lhand lfingers
    rclavicle rhumerus
    rhumerus rradius
    rradius rwrist
    rwrist rhand rthumb
    rhand rfingers
  end

#!OML:ASF I:\salsa\salsa 7_09\Patient 1\Session 1\dancerfemale.ASF
:FULLY-SPECIFIED
:DEGREES
158
root 25.6068 15.8601 -0.972372 -28.1005 -87.6469 33.3161
lowerback -3.38505 1.30168 -3.50201
upperback -5.01649 1.59921 -1.78205
thorax -3.32238 0.82937 0.1325
lowerneck -1.98747 -4.31905 -10.9943
upperneck 8.58535 -6.87043 15.5623
head 3.76472 -3.27436 6.337
rclavicle 3.57812e-015 6.36111e-015
rhumerus -50.9185 -44.9555 -61.4859
rradius 28.716
rwrist 7.90279
rhand 7.25007 42.2027
rfingers 7.12502
rthumb 32.5137 15.1011
lclavicle 3.57812e-015 6.36111e-015
lhumerus -45.8388 28.7069 73.6401
lradius 39.2791
lwrist -13.9364
lhand -25.1772 43.8552
lfingers 7.12502
lthumb 1.34046 73.8307
rfemur -13.4144 -3.35275 21.7886
rtibia 27.2884
rfoot -25.9824 -13.1105
rtoes -5.60013
lfemur -14.7732 -0.514335 -22.1802
ltibia 34.7473
lfoot -27.2972 6.79515
ltoes -22.5042
159
root 25.5964 15.8597 -0.99418 -28.532 -87.7481 33.9076
lowerback -3.52723 1.35915 -3.44345
upperback -5.06955 1.67712 -1.79261
thorax -3.29777 0.864964 0.0918472
lowerneck -1.96773 -4.33938 -10.9088
upperneck 8.58229 -6.89806 15.5021
head 3.75947 -3.28824 6.30147
rclavicle 1.23743e-014 -1.59028e-014
rhumerus -51.5778 -44.9977 -60.9282
rradius 28.7643
rwrist 7.91243
rhand 7.28818 42.1586
rfingers 7.12502
rthumb 32.55 15.0645
lclavicle 1.23743e-014 -1.59028e-014
lhumerus -45.709 28.5804 73.8178
lradius 39.2773
lwrist -13.9838
lhand -25.1149 43.7006
lfingers 7.12502
lthumb 1.40059 73.6758
rfemur -13.5813 -3.37404 21.9166
rtibia 27.3306
rfoot -26.0139 -12.9561
rtoes -5.45856
lfemur -14.8873 -0.436858 -22.066
ltibia 34.7143
lfoot -27.2138 6.93233
ltoes -22.6912
160
root 25.5878 15.8568 -1.01503 -30.7659 -87.7881 36.2932
lowerback -3.62199 1.34074 -3.44018
upperback -5.11429 1.65241 -1.80495
thorax -3.29012 0.851314 0.0788511
lowerneck -2.03617 -4.2831 -10.9728
upperneck 8.6098 -6.81928 15.5508
head 3.77203 -3.24632 6.33175
rclavicle -2.7482e-014 1.90833e-014
rhumerus -51.9348 -44.782 -60.7108
rradius 28.8271
rwrist 7.80491
rhand 7.36942 42.0071
rfingers 7.12502
rthumb 32.6273 14.929
lclavicle -2.7482e-014 1.90833e-014
lhumerus -45.6251 28.604 73.9349
lradius 39.2711
lwrist -14.0015
lhand -25.0248 43.7369
lfingers 7.12502
lthumb 1.4876 73.7115
rfemur -13.7377 -3.45801 21.9655
rtibia 27.3332
rfoot -25.9805 -12.8986
rtoes -6.57813
lfemur -15.0197 -0.396445 -22.052
ltibia 34.7082
lfoot -27.1835 7.05262
ltoes -22.9858
161
root 25.5765 15.8588 -1.03444 -32.4899 -87.7919 38.1036
lowerback -3.67893 1.29398 -3.41601
upperback -5.12869 1.5908 -1.80459
thorax -3.27066 0.819078 0.0666682
lowerneck -2.07103 -4.22574 -10.9174
upperneck 8.60395 -6.72326 15.4224
head 3.75704 -3.19913 6.28564
rclavicle -1.48592e-014 1.74931e-014
rhumerus -52.2092 -44.7222 -60.3877
rradius 28.7126
rwrist 7.93739
rhand 7.08187 41.9847
rfingers 7.12502
rthumb 32.3536 14.8503
lclavicle -1.48592e-014 1.74931e-014
lhumerus -45.5693 28.6715 74.036
lradius 39.227
lwrist -13.9886
lhand -24.9821 43.8425
lfingers 7.12502
lthumb 1.52886 73.8167
rfemur -13.7954 -3.36132 21.9646
rtibia 27.3311
rfoot -26.0526 -12.8193
rtoes -5.55396
lfemur -15.0663 -0.359026 -22.0355
ltibia 34.7055
lfoot -27.1701 7.10998
ltoes -23.4244
162
root 25.5651 15.8588 -1.05374 -32.5164 -87.8331 38.2222
lowerback -3.75032 1.25682 -3.287
upperback -5.15249 1.53998 -1.82677
thorax -3.24914 0.788018 -0.0269648
lowerneck -1.9862 -4.18412 -10.734
upperneck 8.50883 -6.64775 15.2176
head 3.69167 -3.16716 6.19359
rclavicle -4.87022e-015 7.95139e-016
rhumerus -52.5965 -44.8148 -60.0102
rradius 28.6172
rwrist 8.17068
rhand 6.48239 42.0011
rfingers 7.12502
rthumb 31.7829 14.7519
lclavicle -4.87022e-015 7.95139e-016
lhumerus -45.5534 28.6252 74.114
lradius 39.2527
lwrist -14.0211
lhand -25.2062 43.8735
lfingers 7.12502
lthumb 1.31237 73.8493
rfemur -13.8641 -3.2842 22.069
rtibia 27.3543
rfoot -26.1666 -12.8021
rtoes -5.27311
lfemur -15.0975 -0.333256 -21.931
ltibia 34.6699
lfoot -27.1343 7.13817
ltoes -23.5277
163
root 25.5558 15.8539 -1.07367 -35.0884 -87.7827 40.8578
lowerback -3.75317 1.23259 -3.32048
upperback -5.19115 1.50215 -1.90067
thorax -3.28618 0.768153 -0.0852459
lowerneck -1.85844 -4.13427 -10.7153
upperneck 8.41864 -6.5869 15.2709
head 3.63574 -3.14216 6.21349
rclavicle -3.10601e-014 1.82882e-014
rhumerus -53.0139 -44.8289 -59.7219
rradius 28.6491
rwrist 8.14247
rhand 6.23177 41.8595
rfingers 7.12502
rthumb 31.5441 14.5632
lclavicle -3.10601e-014 1.82882e-014
lhumerus -45.5714 28.4736 74.2073
lradius 39.3115
lwrist -14.048
lhand -25.418 43.8734
lfingers 7.12502
lthumb 1.10783 73.8502
rfemur -13.9053 -3.38469 22.075
rtibia 27.3644
rfoot -26.1103 -12.88
rtoes -6.88707
lfemur -15.094 -0.378807 -21.9673
ltibia 34.6241
lfoot -27.1105 7.13109
ltoes -23.1899
164
root 25.5419 15.8523 -1.09226 -40.6742 -87.7508 46.4465
lowerback -3.73207 1.24788 -3.43518
upperback -5.20097 1.51843 -1.9842
thorax -3.31034 0.777948 -0.107949
lowerneck -1.88193 -4.09052 -10.701
upperneck 8.45637 -6.53474 15.3063
head 3.64426 -3.11381 6.22525
rclavicle 2.70347e-014 -1.35174e-014
rhumerus -53.4446 -44.8042 -59.3894
rradius 28.721
rwrist 7.88311
rhand 6.64267 41.9102
rfingers 7.12502
rthumb 31.9355 14.6913
lclavicle 2.70347e-014 -1.35174e-014
lhumerus -45.5747 28.2898 74.3261
lradius 39.3201
lwrist -14.0695
lhand -25.196 44.1014
lfingers 7.12502
lthumb 1.32229 74.0771
rfemur -13.8522 -3.34003 21.9518
rtibia 27.3524
rfoot -26.138 -12.8219
rtoes -6.85762
lfemur -14.9944 -0.390645 -22.0951
ltibia 34.6026
lfoot -27.1619 7.18082
ltoes -23.0038
165
root 25.5247 15.8534 -1.10914 -44.9398 -87.936 50.7732
lowerback -3.84961 1.26787 -3.32376
upperback -5.18549 1.54927 -1.99179
thorax -3.22501 0.788106 -0.174472
lowerneck -2.08482 -4.06062 -10.6182
upperneck 8.63231 -6.48603 15.1644
head 3.71742 -3.08026 6.16468
rclavicle 4.37326e-015 1.51076e-014
rhumerus -53.7322 -44.7711 -59.1238
rradius 28.7712
rwrist 7.71082
rhand 7.11724 42.1109
rfingers 7.12502
rthumb 32.3873 14.9834
lclavicle 4.37326e-015 1.51076e-014
lhumerus -45.536 28.2831 74.4164
lradius 39.239
lwrist -14.1555
lhand -25.569 44.5887
lfingers 7.12502
lthumb 0.961997 74.5663
rfemur -13.867 -3.15311 22.0342
rtibia 27.3542
rfoot -26.1934 -12.6876
rtoes -6.07858
lfemur -14.9626 -0.220206 -22.0061
ltibia 34.6
lfoot -27.2272 7.24545
ltoes -23.1279
166
root 25.5128 15.8527 -1.12549 -47.4146 -88.0829 53.3675
lowerback -4.00044 1.24925 -3.20652
upperback -5.17705 1.53021 -1.96836
thorax -3.12793 0.773774 -0.212006
lowerneck -2.15342 -4.04198 -10.6255
upperneck 8.71474 -6.4556 15.0928
head 3.74748 -3.06345 6.14362
rclavicle 1.20265e-014 -2.54444e-014
rhumerus -53.7501 -44.6848 -59.1116
rradius 28.7921
rwrist 7.75972
rhand 6.75987 42.1133
rfingers 7.12502
rthumb 32.0471 14.9168
lclavicle 1.20265e-014 -2.54444e-014
lhumerus -45.4973 28.4218 74.4817
lradius 39.1195
lwrist -14.3494
lhand -26.2883 44.8931
lfingers 7.12502
lthumb 0.267256 74.8727
rfemur -13.9868 -3.18122 22.2029
rtibia 27.3595
rfoot -26.1417 -12.7234
rtoes -7.58299
lfemur -15.0509 -0.0829988 -21.887
ltibia 34.6135
lfoot -27.2434 7.28165
ltoes -23.1495
167
root 25.5044 15.8513 -1.14204 -49.7641 -88.0937 55.7783
lowerback -4.02468 1.22047 -3.18214
upperback -5.16971 1.49198 -1.98797
thorax -3.10461 0.752977 -0.245445
lowerneck -2.1406 -4.02677 -10.6605
upperneck 8.72726 -6.43894 15.1216
head 3.74861 -3.05597 6.16027
rclavicle -1.50082e-014 9.54166e-015
rhumerus -53.7542 -44.5752 -59.1755
rradius 28.8328
rwrist 7.71109
rhand 6.24305 42.1591
rfingers 7.12502
rthumb 31.5549 14.8649
lclavicle -1.50082e-014 9.54166e-015
lhumerus -45.5039 28.2925 74.6471
lradius 39.1821
lwrist -14.3596
lhand -26.3057 45.1792
lfingers 7.12502
lthumb 0.25051 75.1588
rfemur -14.0651 -3.28536 22.2714
rtibia 27.3468
rfoot -26.0178 -12.7944
rtoes -9.09345
lfemur -15.1049 -0.0770835 -21.8763
ltibia 34.6565
lfoot -27.3013 7.3644
ltoes -23.2528
168
root 25.4964 15.8485 -1.15974 -51.5667 -88.1307 57.5754
lowerback -3.93793 1.17284 -3.0849
upperback -5.16456 1.42254 -2.02549
thorax -3.14258 0.714648 -0.340836
lowerneck -2.17212 -3.96516 -10.7079
upperneck 8.76092 -6.36626 15.2305
head 3.75859 -3.01696 6.20759
rclavicle 1.0635e-014 -2.38542e-014
rhumerus -53.7872 -44.3803 -59.3157
rradius 28.9408
rwrist 7.40958
rhand 6.17157 42.4452
rfingers 7.12502
rthumb 31.4868 15.1376
lclavicle 1.0635e-014 -2.38542e-014
lhumerus -45.5701 28.0111 74.7644
lradius 39.3019
lwrist -14.221
lhand -25.9153 45.1734
lfingers 7.12502
lthumb 0.627506 75.1522
rfemur -14.0675 -3.23345 22.3527
rtibia 27.3587
rfoot -26.1223 -12.8526
rtoes -8.9737
lfemur -15.0881 -0.0412306 -21.8133
ltibia 34.7095
lfoot -27.4039 7.39999
ltoes -23.5881
169
root 25.4879 15.846 -1.17736 -53.4478 -88.1833 59.4866
lowerback -3.90717 1.11335 -2.97434
upperback -5.16318 1.33944 -2.05095
thorax -3.15312 0.66883 -0.430088
lowerneck -2.13689 -3.86622 -10.7362
upperneck 8.70788 -6.2338 15.3077
head 3.72169 -2.95255 6.24564
rclavicle 1.90336e-014 7.15625e-015
rhumerus -53.7025 -44.0962 -59.6569
rradius 29.2105
rwrist 6.96311
rhand 6.04633 42.6638
rfingers 7.12502
rthumb 31.3675 15.3331
lclavicle 1.90336e-014 7.15625e-015
lhumerus -45.6096 27.9161 74.7702
lradius 39.2435
lwrist -14.2082
lhand -25.3592 44.121
lfingers 7.12502
lthumb 1.16463 74.0976
rfemur -14.1023 -3.02439 22.4454
rtibia 27.4187
rfoot -26.2489 -13.0341
rtoes -8.70754
lfemur -15.1043 0.0233008 -21.7277
ltibia 34.7546
lfoot -27.4929 7.37226
ltoes -23.8434
170
root 25.4783 15.8436 -1.19541 -57.5547 -88.1835 63.617
lowerback -3.90691 1.06795 -2.98737
upperback -5.13349 1.28023 -2.0655
thorax -3.12148 0.639114 -0.437865
lowerneck -2.12414 -3.78564 -10.6737
upperneck 8.63382 -6.10971 15.2408
head 3.67691 -2.89264 6.22013
rclavicle 9.54166e-015 -1.35174e-014
rhumerus -53.3536 -43.5493 -60.4424
rradius 29.779
rwrist 5.94829
rhand 5.74049 42.4379
rfingers 7.12502
rthumb 31.076 15.051
lclavicle 9.54166e-015 -1.35174e-014
lhumerus -45.5787 27.9366 74.833
lradius 39.0975
lwrist -14.2721
lhand -25.1199 42.8656
lfingers 7.12502
lthumb 1.39578 72.8408
rfemur -14.1198 -2.67917 22.4586
rtibia 27.4865
rfoot -26.3237 -13.3132
rtoes -8.87651
lfemur -15.114 0.106853 -21.7325
ltibia 34.8297
lfoot -27.6059 7.40912
ltoes -24.1498
171
root 25.469 15.8371 -1.21527 -63.261 -88.1244 69.2788
lowerback -3.80055 1.03855 -3.11248
upperback -5.09852 1.23978 -2.08663
thorax -3.14706 0.623166 -0.391785
lowerneck -2.18689 -3.75269 -10.5355
upperneck 8.64557 -6.04754 15.0636
head 3.6738 -2.85997 6.14142
rclavicle -2.83268e-014 8.74653e-015
rhumerus -52.8345 -42.619 -61.6739
rradius 30.6993
rwrist 3.99573
rhand 5.58939 42.1783
rfingers 7.12502
rthumb 30.932 14.7638
lclavicle -2.83268e-014 8.74653e-015
lhumerus -45.5557 27.8985 74.9524
lradius 39.0113
lwrist -14.3002
lhand -25.2232 42.4497
lfingers 7.12502
lthumb 1.29596 72.4255
rfemur -14.07 -2.42029 22.4061
rtibia 27.5555
rfoot -26.3689 -13.486
rtoes -9.29135
lfemur -15.0876 0.217577 -21.8102
ltibia 34.974
lfoot -27.7763 7.49759
ltoes -24.5143
172
root 25.4603 15.8291 -1.23503 -68.3679 -88.1292 74.3516
lowerback -3.7258 1.02555 -3.16719
upperback -5.04234 1.22418 -2.08225
thorax -3.13172 0.617806 -0.357471
lowerneck -2.24813 -3.73443 -10.5121
upperneck 8.64325 -6.00858 14.9876
head 3.6757 -2.83935 6.11389
rclavicle 4.52235e-015 1.59028e-015
rhumerus -52.2849 -41.599 -63.0485
rradius 31.9176
rwrist 1.48811
rhand 5.87872 42.2818
rfingers 7.12502
rthumb 31.2078 14.9202
lclavicle 4.52235e-015 1.59028e-015
lhumerus -45.4812 27.8864 75.0834
lradius 38.9498
lwrist -14.3269
lhand -25.1789 42.5183
lfingers 7.12502
lthumb 1.33875 72.4938
rfemur -14.0455 -2.30783 22.4405
rtibia 27.6431
rfoot -26.5024 -13.4732
rtoes -9.49369
lfemur -15.1315 0.302926 -21.8
ltibia 35.2109
lfoot -27.9831 7.60011
ltoes -24.7927
